<?xml version="1.0" encoding="UTF-8" standalone="no"?>
<svg
   xmlns:dc="http://purl.org/dc/elements/1.1/"
   xmlns:cc="http://creativecommons.org/ns#"
   xmlns:rdf="http://www.w3.org/1999/02/22-rdf-syntax-ns#"
   xmlns:svg="http://www.w3.org/2000/svg"
   xmlns="http://www.w3.org/2000/svg"
   id="svg8"
   version="1.1"
   viewBox="0 0 11.5 36.599999"
   height="36.599998mm"
   width="11.5mm">
  <defs
     id="defs2" />
  <metadata
     id="metadata5">
    <rdf:RDF>
      <cc:Work
         rdf:about="">
        <dc:format>image/svg+xml</dc:format>
        <dc:type
           rdf:resource="http://purl.org/dc/dcmitype/StillImage" />
        <dc:title></dc:title>
      </cc:Work>
    </rdf:RDF>
  </metadata>
  <g
     transform="translate(0,-260.40001)"
     id="layer1">
    <g
       transform="translate(-156.39927,111.97163)"
       id="g948">
      <path
         style="opacity:0.5;fill:#ff0000;fill-opacity:1;fill-rule:evenodd;stroke:#000000;stroke-width:0.1;stroke-linecap:round;stroke-miterlimit:4;stroke-dasharray:none;stroke-dashoffset:0;stroke-opacity:0.50196078"
         d="m 163.22372,153.1757 v -4.56424 h 1.03963 1.03963 v 4.56424 4.56424 h -1.03963 -1.03963 z"
         id="path942" />
      <path
         style="opacity:0.5;fill:#ff0000;fill-opacity:1;fill-rule:evenodd;stroke:#000000;stroke-width:0.1;stroke-linecap:round;stroke-miterlimit:4;stroke-dasharray:none;stroke-dashoffset:0;stroke-opacity:0.50196078"
         d="m 163.22372,183.21053 v -1.71201 l -1.16642,-1.16559 -1.16641,-1.16559 v -1.14203 -1.14204 l 0.86213,-0.86101 c 0.47418,-0.47356 0.86213,-0.88504 0.86213,-0.9144 0,-0.0294 -1.36952,-3.81654 -3.04338,-8.41595 -1.67387,-4.59941 0,0 -3.0048,-8.398 1.67906,-0.61555 0,0 1.67906,-0.61555 0.0481,-0.0102 3.15291,8.45471 3.15291,8.45471 l 3.08457,8.4692 0.47313,0.0142 0.47313,0.0142 1.12838,1.12644 1.12838,1.12644 v 1.14189 1.14189 l -1.19177,1.19096 -1.19178,1.19097 v 1.68664 1.68663 h -1.03963 -1.03963 z m 2.38355,-5.21043 v -1.34392 h -1.26785 c -1.09316,0 -1.41047,0.006 -1.41047,0.006 0.001,0.6313 0.001,0.84577 -0.01,1.41368 v 1.26784 h 1.34391 1.34392 z"
         id="path944" />
    </g>
  </g>
</svg>
